PathFileType  4	(X/Y/Z) C:\Users\antoi\Documents\MyRepositories\mobilecap\ResultsAnalysis
DataRate	CameraRate	NumFrames	NumMarkers	Units	OrigDataRate	OrigDataStartFrame	OrigNumFrames
100.0	100.0	4	55	mm	100.0	1	601
Frame#	Time	r_knee			r_shank_antsup			r_ankle			r_calc			r_5meta			r_toe			L_knee			L_shank_antsup			L_ankle			L_calc			L_5meta			L_toe			r_mknee			r_mankle			L_mknee			L_mankle			r_sh2			r_sh3			r_sh4			L_sh2			L_sh3			r_thigh1			r_thigh2			r_thigh3			r_thigh4			r_thigh5			L_thigh1			L_thigh2			L_thigh3			L_thigh4			r.ASIS			r.PSIS			L.ASIS			L.PSIS			C7			R_Shoulder			L_Shoulder			R_Sternum			L_Sternum			R_humerus			R_elbow_med			R_elbow_lat			R_forearm			R_wrist_radius			R_wrist_ulna			L_humerus			L_elbow_med			L_elbow_lat			L_forearm			L_wrist_radius			L_wrist_ulna			R_HJC			L_HJC			R_HJC_reg			L_HJC_reg			
		X1	Y1	Z1	X2	Y2	Z2	X3	Y3	Z3	X4	Y4	Z4	X5	Y5	Z5	X6	Y6	Z6	X7	Y7	Z7	X8	Y8	Z8	X9	Y9	Z9	X10	Y10	Z10	X11	Y11	Z11	X12	Y12	Z12	X13	Y13	Z13	X14	Y14	Z14	X15	Y15	Z15	X16	Y16	Z16	X17	Y17	Z17	X18	Y18	Z18	X19	Y19	Z19	X20	Y20	Z20	X21	Y21	Z21	X22	Y22	Z22	X23	Y23	Z23	X24	Y24	Z24	X25	Y25	Z25	X26	Y26	Z26	X27	Y27	Z27	X28	Y28	Z28	X29	Y29	Z29	X30	Y30	Z30	X31	Y31	Z31	X32	Y32	Z32	X33	Y33	Z33	X34	Y34	Z34	X35	Y35	Z35	X36	Y36	Z36	X37	Y37	Z37	X38	Y38	Z38	X39	Y39	Z39	X40	Y40	Z40	X41	Y41	Z41	X42	Y42	Z42	X43	Y43	Z43	X44	Y44	Z44	X45	Y45	Z45	X46	Y46	Z46	X47	Y47	Z47	X48	Y48	Z48	X49	Y49	Z49	X50	Y50	Z50	X51	Y51	Z51	X52	Y52	Z52	X53	Y53	Z53	X54	Y54	Z54	X55	Y55	Z55	

1	0.00000000	-195.92319	547.56452	-438.84506	-169.89319	451.77944	-445.89580	-274.17808	122.66966	-468.17854	-356.41739	74.29846	-516.28510	-166.23364	47.70272	-415.48764	-104.11695	74.04645	-475.41019	-192.81494	548.65491	-778.11072	-198.65471	460.15494	-802.73163	-259.26338	125.52629	-752.78256	-342.26219	74.61958	-701.63665	-148.23598	50.52406	-784.46899	-89.92557	76.28828	-720.44694	-185.73270	534.92523	-573.38489	-239.78891	134.09955	-557.62885	-181.38080	541.54529	-641.95062	-237.93965	130.71306	-656.29858	-199.27435	344.53269	-420.83768	-231.63240	476.51576	-408.51949	-276.76154	369.62571	-402.14582	-288.36720	472.45042	-795.50360	-290.99997	350.26065	-792.71423	-97.79909	867.13849	-419.23889	-104.47439	756.84944	-424.18113	-162.60944	733.62003	-400.54593	-211.48000	867.78584	-416.65353	-210.98029	753.10828	-420.63760	-89.10335	831.82037	-783.94976	-94.93922	691.50116	-772.89458	-198.50955	834.57336	-800.57112	-207.77160	697.91204	-795.59765	-85.32821	1083.98096	-465.03543	-261.51959	1094.21290	-544.40034	-71.40259	1087.66235	-716.75610	-257.39628	1092.84870	-652.73629	-243.99745	1630.88770	-594.77282	-169.53011	1572.29163	-427.85995	-188.82256	1574.78419	-768.01806	-113.34049	1558.27307	-567.85143	-115.78455	1555.53466	-625.19000	-148.57022	1416.05226	-358.54548	-209.31975	1209.06885	-388.61591	-201.43473	1232.82079	-308.56921	-134.37090	1077.68176	-263.41330	-86.34546	992.33302	-258.34564	-129.84211	994.70923	-241.56728	-202.59677	1448.39050	-846.50152	-214.58738	1208.64967	-805.20666	-215.58359	1228.23278	-882.44106	-170.20471	1177.56044	-922.64596	-101.77652	1013.41967	-954.99712	-141.88104	1002.87469	-960.15155	-158.02656	965.87372	-491.13550	-152.54696	974.21935	-697.85532	-140.51700	1003.91361	-501.65347	-134.18855	1001.81984	-667.92732	
2	0.01000000	-195.85615	547.73702	-438.70298	-169.95353	451.75786	-445.81300	-274.20154	122.66616	-468.20064	-356.45391	74.23640	-516.22294	-166.21117	47.69609	-415.55785	-104.16920	74.05208	-475.45607	-192.83735	548.58321	-778.14771	-198.64964	460.14002	-802.73518	-259.24056	125.54880	-752.83901	-342.23853	74.65699	-701.65939	-148.23976	50.51402	-784.46609	-89.98535	76.21604	-720.48174	-185.74068	534.92664	-573.37395	-239.78626	134.08498	-557.62271	-181.38489	541.53727	-641.95420	-237.93906	130.68676	-656.29394	-199.27841	344.51491	-420.87343	-231.47651	476.75786	-408.35259	-276.76559	369.63369	-402.15426	-288.37696	472.44067	-795.51269	-291.01385	350.23138	-792.70771	-97.86619	867.12950	-419.19433	-104.52112	756.81818	-424.16897	-162.58243	733.61938	-400.60360	-211.60108	867.75867	-416.70469	-210.99039	753.03662	-420.62551	-89.11487	831.81490	-783.94933	-94.96897	691.49688	-772.86521	-198.54910	834.56575	-800.57286	-207.77812	697.83337	-795.70170	-85.33685	1084.00036	-465.04617	-261.54045	1094.20056	-544.40099	-71.41119	1087.66055	-716.75832	-257.29420	1092.84338	-652.81155	-244.00940	1630.93105	-594.84702	-169.54808	1572.26389	-427.84716	-188.81642	1574.79633	-767.91109	-113.33370	1558.27873	-567.79772	-115.76121	1555.51775	-625.11625	-148.56864	1416.04021	-358.48166	-209.34529	1209.01939	-388.61359	-201.51323	1232.85022	-308.56515	-134.41553	1077.65042	-263.41085	-86.40411	992.27872	-258.31889	-129.95882	994.69081	-241.44591	-202.59786	1448.41060	-846.48703	-214.58576	1208.64912	-805.20018	-215.59409	1228.23669	-882.43834	-170.23749	1177.57676	-922.59478	-101.84427	1013.41356	-955.04048	-141.95252	1002.86389	-960.12125	-158.01825	965.88128	-491.14786	-152.50245	974.21417	-697.86724	-140.59122	1003.90275	-501.73621	-134.07906	1001.82127	-667.99730	
3	0.02000000	-195.84366	547.75021	-438.62642	-170.00004	451.76149	-445.79429	-274.22529	122.60726	-468.20946	-356.43994	74.21568	-516.21790	-166.20448	47.69280	-415.55571	-104.16557	74.05034	-475.44179	-192.85407	548.59320	-778.14432	-198.65279	460.13404	-802.73450	-259.23291	125.55455	-752.86571	-342.25922	74.63400	-701.64058	-148.24609	50.50129	-784.46917	-90.04354	76.16888	-720.47426	-185.74487	534.92717	-573.37313	-239.78943	134.07184	-557.62249	-181.38634	541.53491	-641.95496	-237.93934	130.68073	-656.29351	-199.30217	344.49464	-420.90081	-231.44956	476.78848	-408.25458	-276.76722	369.59878	-402.10852	-288.37363	472.42693	-795.51656	-291.02901	350.22851	-792.69636	-97.94100	867.16682	-419.13905	-104.55540	756.80244	-424.13268	-162.52362	733.66532	-400.58081	-211.56712	867.76430	-416.66575	-211.02436	753.01497	-420.63743	-89.11882	831.81282	-783.94646	-94.99208	691.48676	-772.84640	-198.57593	834.55811	-800.57180	-207.80242	697.75376	-795.60442	-85.34068	1084.01704	-465.05467	-261.57359	1094.18900	-544.39335	-71.42393	1087.65761	-716.76177	-257.32207	1092.84104	-652.79063	-244.00611	1630.92257	-594.82357	-169.53612	1572.23095	-427.76278	-188.82872	1574.80634	-767.81735	-113.33165	1558.27320	-567.76811	-115.75609	1555.50544	-625.09515	-148.56509	1416.01305	-358.36937	-209.42729	1208.98616	-388.56129	-201.53578	1232.83376	-308.53926	-134.46569	1077.61691	-263.38839	-86.42477	992.25087	-258.29387	-130.02524	994.64136	-241.38456	-202.58843	1448.42970	-846.47301	-214.58476	1208.65045	-805.19740	-215.59215	1228.25679	-882.43250	-170.26549	1177.53048	-922.48423	-101.91984	1013.41125	-955.09810	-142.02601	1002.85692	-960.11582	-158.02111	965.88775	-491.13766	-152.51961	974.20979	-697.85785	-140.59183	1003.89199	-501.75373	-134.07102	1001.82455	-668.01081	
4	0.03000000	-195.88013	547.67820	-438.63004	-170.02911	451.75333	-445.80209	-274.23613	122.53891	-468.20861	-356.42118	74.20657	-516.22525	-166.19481	47.70360	-415.51038	-104.11637	74.04224	-475.38067	-192.84843	548.63278	-778.11770	-198.66299	460.13491	-802.73394	-259.24337	125.52656	-752.83340	-342.29651	74.57153	-701.61101	-148.24787	50.49497	-784.47399	-90.07850	76.13870	-720.39486	-185.74956	534.92630	-573.37299	-239.79126	134.06692	-557.62291	-181.38419	541.53881	-641.94793	-237.93654	130.67413	-656.29123	-199.35417	344.45168	-420.89907	-231.57580	476.64675	-408.33326	-276.76744	369.55185	-402.05253	-288.37099	472.41932	-795.51590	-291.04885	350.23568	-792.68469	-97.97846	867.20197	-419.10950	-104.60906	756.75335	-424.08148	-162.51273	733.69988	-400.53211	-211.50080	867.80189	-416.59959	-211.03557	753.03484	-420.64127	-89.12961	831.81190	-783.94825	-95.00846	691.48019	-772.84147	-198.59742	834.55471	-800.57296	-207.83119	697.72723	-795.48771	-85.34312	1084.02092	-465.05279	-261.59896	1094.17175	-544.36827	-71.45196	1087.64318	-716.72517	-257.37274	1092.77162	-652.76921	-243.97497	1630.88552	-594.72407	-169.49191	1572.20700	-427.63308	-188.83872	1574.82652	-767.75210	-113.32502	1558.25369	-567.74612	-115.75893	1555.48938	-625.10286	-148.56228	1415.97426	-358.26082	-209.51573	1208.99465	-388.48563	-201.55350	1232.74080	-308.50011	-134.51481	1077.58388	-263.35164	-86.44315	992.23240	-258.27696	-130.06266	994.58417	-241.38920	-202.57065	1448.44637	-846.46008	-214.58310	1208.65140	-805.19804	-215.59651	1228.28680	-882.42172	-170.29336	1177.49982	-922.40426	-101.99664	1013.41343	-955.15129	-142.10610	1002.86144	-960.11551	-158.01389	965.88101	-491.09901	-152.52985	974.17376	-697.82083	-140.59755	1003.94587	-501.69346	-134.11691	1001.79919	-667.92686	
